<?xml version="1.0" encoding="utf-8"?>
<!-- Generator: Adobe Illustrator 23.1.0, SVG Export Plug-In . SVG Version: 6.00 Build 0)  -->
<svg version="1.1" id="app" xmlns="http://www.w3.org/2000/svg" xmlns:xlink="http://www.w3.org/1999/xlink" x="0px" y="0px"
	 viewBox="0 0 1000 123.03" style="enable-background:new 0 0 1000 123.03;" xml:space="preserve">
<style type="text/css">
	.st0{opacity:0.79;fill:#FFFFFF;}
	.st1{fill:#B3B3B3;}
	.st2{fill:#E6E6E6;}
	.st3{fill:#0071BC;}
	.st4{font-family:'Calibri';}
	.st5{font-size:12px;}
	.st6{fill:#808080;}
	.st7{font-size:14px;}
	.st8{font-size:24px;}
	.st9{font-size:120px;}
	.st10{fill:#ED1C24;}
	.st11{fill:#29ABE2;}
	.st12{fill:#FF0000;}
	.st13{fill:#00FF00;}
	.st14{fill:#CCCCCC;}
	.st15{fill:#F7931E;}
	.st16{fill:#2E3192;}
	.st17{font-size:36px;}
	.st18{font-size:10px;}
</style>
<path id="backgrond" class="st0" d="M986.54,123.03H13.46C6.03,123.03,0,117,0,109.57V13.46C0,6.03,6.03,0,13.46,0h973.08
	c7.43,0,13.46,6.03,13.46,13.46v96.11C1000,117,993.97,123.03,986.54,123.03z"/>
<rect id="rpm" x="191.07" y="9.45" class="st1" width="680.59" height="11.84"/>
<g id="brake_x5F_temps">
	<path id="brake_x5F_temps_x5F_rec" class="st2" d="M770.58,78.09h-59.05c-4.4,0-7.98-3.57-7.98-7.98V35.39
		c0-4.4,3.57-7.98,7.98-7.98h59.05c4.4,0,7.98,3.57,7.98,7.98v34.72C778.55,74.51,774.98,78.09,770.58,78.09z"/>
	<text id="brake1" transform="matrix(1 0 0 1 708.622 44.4975)" class="st3 st4 st5">32C</text>
	<text id="brake3" transform="matrix(1 0 0 1 755.1621 69.1185)" class="st3 st4 st5">32C</text>
	<text id="brake2" transform="matrix(1 0 0 1 708.6223 69.1184)" class="st3 st4 st5">32C</text>
	<text id="brake0" transform="matrix(1 0 0 1 755.162 44.4975)" class="st3 st4 st5">32C</text>
</g>
<rect id="filler" x="191.07" y="9.45" class="st6" width="286.18" height="11.84"/>
<text id="max_x5F_rpm" transform="matrix(1 0 0 1 876.2633 18)" class="st4 st5">8k</text>
<text id="units" transform="matrix(1 0 0 1 84.4457 68.2763)" class="st4 st7">km/h</text>
<text id="speed" transform="matrix(1 0 0 1 84.4456 49.5788)" class="st4 st8">0</text>
<text id="gear" transform="matrix(1 0 0 1 10.474 84.4477)" class="st4 st9">N</text>
<text id="rpm_x5F_text" transform="matrix(1 0 0 1 84.4457 21.2893)" class="st4 st7">0 RPM</text>
<rect id="top_x5F_rpm" x="848.63" y="9.45" class="st10" width="23.03" height="11.84"/>
<g id="pedals">
	<path id="pedals_x5F_rec" class="st2" d="M987.83,87.74h-66.85c-4.4,0-7.98-3.57-7.98-7.98V12.91c0-4.4,3.57-7.98,7.98-7.98h66.85
		c4.4,0,7.98,3.57,7.98,7.98v66.85C995.8,84.17,992.23,87.74,987.83,87.74z"/>
	<rect id="clutch" x="921.38" y="8.08" class="st1" width="14.47" height="63.22"/>
	<rect id="gas" x="970.76" y="8.08" class="st1" width="14.47" height="63.22"/>
	<rect id="brake" x="946.28" y="8.08" class="st1" width="14.47" height="63.22"/>
	
		<rect id="clutch_x5F_filler_1_" x="921.38" y="8.08" transform="matrix(-1 -1.224647e-16 1.224647e-16 -1 1857.2371 79.3748)" class="st11" width="14.47" height="63.22"/>
	
		<rect id="brake_x5F_filler" x="946.74" y="8.08" transform="matrix(-1 -1.224647e-16 1.224647e-16 -1 1907.9474 79.3747)" class="st12" width="14.47" height="63.22"/>
	
		<rect id="gas_x5F_filler" x="970.76" y="8.08" transform="matrix(-1 -1.224647e-16 1.224647e-16 -1 1955.991 79.3748)" class="st13" width="14.47" height="63.22"/>
	<text id="clutch_x5F_text" transform="matrix(1 0 0 1 916.6714 82.8876)" class="st4 st7">100</text>
	<text id="brake_x5F_text" transform="matrix(1 0 0 1 942.6429 82.8875)" class="st4 st7">100</text>
	<text id="gas_x5F_text" transform="matrix(1 0 0 1 967.999 82.8876)" class="st4 st7">100</text>
</g>
<g id="engine_x5F_info">
	<path id="engine_x5F_info_x5F_rec" class="st2" d="M869.86,115.18h-77.17c-4.4,0-7.98-3.57-7.98-7.98V35.39
		c0-4.4,3.57-7.98,7.98-7.98h77.17c4.4,0,7.98,3.57,7.98,7.98v71.81C877.84,111.61,874.26,115.18,869.86,115.18z"/>
	<rect id="temps_x5F_rec_1_" x="791.29" y="68.82" class="st14" width="80.37" height="12.5"/>
	<rect id="boost_x5F_rec_1_" x="791.29" y="96.85" class="st14" width="80.37" height="12.5"/>
	<rect id="fuel_x5F_rec_1_" x="791.29" y="43.88" class="st14" width="80.37" height="12.5"/>
	<rect id="boost_x5F_filler_1_" x="791.29" y="96.85" class="st15" width="80.37" height="12.5"/>
	<rect id="temps_x5F_filler_1_" x="791.29" y="68.82" class="st12" width="80.37" height="12.5"/>
	<rect id="fuel_x5F_filler_1_" x="791.29" y="43.88" class="st16" width="80.37" height="12.5"/>
	<text id="fuel_2_" transform="matrix(1 0 0 1 791.2897 39.6079)" class="st4 st5">Fuel: NA</text>
	<text id="temps_2_" transform="matrix(1 0 0 1 791.2897 66.0986)" class="st4 st5">Temp: NA</text>
	<text id="boost_2_" transform="matrix(1 0 0 1 791.2899 92.3883)" class="st4 st5">Boost: NA</text>
	<path id="engine_x5F_info_x5F_rec_1_" class="st2" d="M312.73,115.18H196.45c-4.4,0-7.98-3.57-7.98-7.98V32.37
		c0-4.4,3.57-7.98,7.98-7.98h116.29c4.4,0,7.98,3.57,7.98,7.98v74.83C320.71,111.61,317.14,115.18,312.73,115.18z"/>
</g>
<g id="lap_x5F_times">
	<text id="best_x5F_lap_x5F_time" transform="matrix(1 0 0 1 191.0658 84.4477)" class="st4 st7">Best: NA</text>
	<text id="last_x5F_lap_x5F_time" transform="matrix(1 0 0 1 191.0658 68.2762)" class="st4 st7">Last: NA</text>
	<text id="current" transform="matrix(1 0 0 1 191.0658 51.733)" class="st4 st17">0:00:00</text>
	<text transform="matrix(1 0 0 1 191.0661 109.3485)" class="st4 st5">Lap: NA</text>
	<text transform="matrix(1 0 0 1 191.0656 96.8487)" class="st4 st5">Check Point: NA </text>
</g>
<path id="time_x5F_rec" class="st2" d="M989.34,119.08h-69.88c-3.57,0-6.46-2.89-6.46-6.46v-9.3c0-3.57,2.89-6.46,6.46-6.46h69.88
	c3.57,0,6.46,2.89,6.46,6.46v9.3C995.8,116.18,992.91,119.08,989.34,119.08z"/>
<text id="time" transform="matrix(1 0 0 1 924.6711 112.4996)" class="st4 st5">Clock: 12:48</text>
<g id="fuel_x5F_range">
	<path id="range_x5F_rec" class="st2" d="M772.09,114.21h-62.07c-3.57,0-6.46-2.89-6.46-6.46V90.91c0-3.57,2.89-6.46,6.46-6.46
		h62.07c3.57,0,6.46,2.89,6.46,6.46v16.84C778.55,111.32,775.66,114.21,772.09,114.21z"/>
	<text id="range_x5F_text" transform="matrix(1 0 0 1 725.3157 96.8486)" class="st4 st5">NA</text>
	<text transform="matrix(1 0 0 1 728.6053 109.3485)" class="st4 st18">Range</text>
</g>
</svg>
